<svg xmlns="http://www.w3.org/2000/svg">
<defs>
<font id="Anthony" horiz-adv-x="0" >
  <font-face 
    font-family="Anthony"
    font-weight="400"
    font-stretch="normal"
    units-per-em="2048"
    panose-1="0 0 5 0 0 0 0 0 0 0"
    ascent="1638"
    descent="-410"
    x-height="819"
    cap-height="1434"
    bbox="-1391 -616 2251 2062"
    underline-thickness="102"
    underline-position="-307"
    unicode-range="U+0020-2665"
  />
<missing-glyph horiz-adv-x="2048" 
d="M102 1229h-20v205h20v-205zM184 1229h-20v205h143v-21h-123v-72h82v-20h-82v-92zM440 1321h-71v113h20v-93h123v93h20v-113h-71v-92h-21v92zM748 1229h-154v205h154v-205zM973 1229h-164v205h20v-185h123v185h21v-205zM1946 1229h-912v205h912v-205zM614 1413v-164h113
v164h-113zM266 922h-184v204h20v-184h62v113h20v-113h62v184h20v-204zM338 922h-21v82h31v61h31v61h72v-61h30v-61h31v-82h-20v61h-154v-61zM584 922h-21v204h62v-61h30v-61h31v-62h21v184h20v-204h-61v61h-31v61h-31v62h-20v-184zM840 1106h-72v20h164v-20h-72v-184h-20
v184zM1034 922h-20v204h61v-61h31v-61h41v61h31v61h61v-204h-20v184h-21v-62h-31v-61h-30v-61h-21v61h-31v61h-30v62h-21v-184zM1454 922h-154v204h154v-204zM1526 922h-21v204h113v-102h61v-102h-20v82h-133v-82zM1864 922h-144v204h144v-20h-123v-72h82v-20h-82v-72h123
v-20zM369 1044v-40h92v40h-31v62h-31v-62h-30zM1321 1106v-164h113v164h-113zM1526 1106v-82h71v82h-71zM1915 922h-10v30h30v-61h-20v31zM102 614h-20v205h143v-20h-123v-72h82v-20h-82v-93zM420 614h-154v205h154v-205zM502 614h-21v205h113v-102h61v-103h-20v82h-133v-82
zM727 614h-20v205h20v-92h31v31h51v61h51v-20h-31v-62h-51v-41h51v-61h31v-21h-51v62h-51v31h-31v-93zM1014 614h-21v205h62v-61h30v-62h41v62h31v61h62v-205h-21v185h-20v-62h-31v-61h-31v-62h-20v62h-31v61h-31v62h-20v-185zM1434 614h-144v205h144v-20h-123v-72h82v-20
h-82v-72h123v-21zM1710 614h-154v205h154v-205zM1792 614h-20v205h112v-102h62v-103h-21v82h-133v-82zM287 799v-164h112v164h-112zM502 799v-82h71v82h-71zM1577 799v-164h113v164h-113zM1792 799v-82h72v82h-72zM215 307h-133v205h133v-20h-113v-164h113v-21zM420 307

<glyph glyph-name=".notdef" horiz-adv-x="2048" 
d="M102 1229h-20v205h20v-205zM184 1229h-20v205h143v-21h-123v-72h82v-20h-82v-92zM440 1321h-71v113h20v-93h123v93h20v-113h-71v-92h-21v92zM748 1229h-154v205h154v-205zM973 1229h-164v205h20v-185h123v185h21v-205zM1946 1229h-912v205h912v-205zM614 1413v-164h113
v164h-113zM266 922h-184v204h20v-184h62v113h20v-113h62v184h20v-204zM338 922h-21v82h31v61h31v61h72v-61h30v-61h31v-82h-20v61h-154v-61zM584 922h-21v204h62v-61h30v-61h31v-62h21v184h20v-204h-61v61h-31v61h-31v62h-20v-184zM840 1106h-72v20h164v-20h-72v-184h-20
v184zM1034 922h-20v204h61v-61h31v-61h41v61h31v61h61v-204h-20v184h-21v-62h-31v-61h-30v-61h-21v61h-31v61h-30v62h-21v-184zM1454 922h-154v204h154v-204zM1526 922h-21v204h113v-102h61v-102h-20v82h-133v-82zM1864 922h-144v204h144v-20h-123v-72h82v-20h-82v-72h123
v-20zM369 1044v-40h92v40h-31v62h-31v-62h-30zM1321 1106v-164h113v164h-113zM1526 1106v-82h71v82h-71zM1915 922h-10v30h30v-61h-20v31zM102 614h-20v205h143v-20h-123v-72h82v-20h-82v-93zM420 614h-154v205h154v-205zM502 614h-21v205h113v-102h61v-103h-20v82h-133v-82
zM727 614h-20v205h20v-92h31v31h51v61h51v-20h-31v-62h-51v-41h51v-61h31v-21h-51v62h-51v31h-31v-93zM1014 614h-21v205h62v-61h30v-62h41v62h31v61h62v-205h-21v185h-20v-62h-31v-61h-31v-62h-20v62h-31v61h-31v62h-20v-185zM1434 614h-144v205h144v-20h-123v-72h82v-20
h-82v-72h123v-21zM1710 614h-154v205h154v-205zM1792 614h-20v205h112v-102h62v-103h-21v82h-133v-82zM287 799v-164h112v164h-112zM502 799v-82h71v82h-71zM1577 799v-164h113v164h-113zM1792 799v-82h72v82h-72zM215 307h-133v205h133v-20h-113v-164h113v-21zM420 307
h-154v205h154v-205zM502 307h-21v205h62v-61h30v-62h31v-61h21v184h20v-205h-61v62h-31v61h-31v62h-20v-185zM748 492h-72v20h164v-20h-72v-185h-20v185zM860 307h-20v82h30v62h31v61h72v-61h31v-62h30v-82h-20v62h-154v-62zM1208 307h-133v205h133v-20h-112v-164h112v-21z
M1321 492h-72v20h164v-20h-72v-185h-20v185zM1946 307h-492v205h492v-205zM287 492v-164h112v164h-112zM891 430v-41h92v41h-31v62h-30v-62h-31zM102 184h-30v21h51v-62h31v-61h41v61h30v62h51v-21h-30v-61h-31v-62h-31v-61h-20v61h-31v62h-31v61zM461 0h-144v205h144v-21
h-123v-71h82v-21h-82v-72h123v-20zM666 0h-144v205h21v-185h123v-20zM666 184h-31v21h51v-62h31v-61h41v61h30v62h52v-21h-31v-61h-31v-62h-30v-61h-21v61h-31v62h-30v61zM1024 0h-143v205h143v-21h-123v-71h82v-21h-82v-72h123v-20zM1137 184h-72v21h164v-21h-72v-184h-20
v184zM1341 92h-71v113h20v-92h123v92h21v-113h-72v-92h-21v92zM1495 0h-20v205h61v-62h31v-61h30v-62h21v185h20v-205h-61v61h-31v62h-30v61h-21v-184zM1833 0h-143v205h143v-21h-123v-71h82v-21h-82v-72h123v-20zM164 -307h-21v205h144v-21h-123v-72h82v-20h-82v-92z
M358 -307h-20v205h113v-103h61v-102h-20v82h-134v-82zM1946 -307h-1362v205h1362v-205zM358 -123v-82h72v82h-72zM92 -307h-31v31h31v-31z" />
    <glyph glyph-name=".null" 
 />
    <glyph glyph-name="nonmarkingreturn" horiz-adv-x="682" 
 />
    <glyph glyph-name="space" unicode=" " horiz-adv-x="819" 
 />
    <glyph glyph-name="exclam" unicode="!" horiz-adv-x="477" 
d="M186 428h88v1006h-88v-1006zM240 270l100 -174l76 43l-101 174zM61 133l78 -39l86 176l-78 39zM143 0h193v88h-193v-88z" />
    <glyph glyph-name="quotedbl" unicode="&#x22;" horiz-adv-x="585" 
d="M102 938l86 -10l50 512l-86 8zM328 938l86 -10l49 512l-86 8z" />
    <glyph glyph-name="numbersign" unicode="#" horiz-adv-x="1146" 
d="M375 1030l88 -12l61 420l-88 12zM797 1030l88 -12l61 420l-88 12zM164 924h901v88h-901v-88zM297 520l86 -12l59 397l-86 13zM719 520l86 -12l61 397l-88 13zM82 418h901v88h-901v-88zM219 -12l86 -13l64 422l-86 13zM641 -12l88 -13l62 422l-86 13z" />
    <glyph glyph-name="dollar" unicode="$" horiz-adv-x="980" 
d="M393 1253h88v529h-88v-529zM45 815l64 -63l634 634l-61 64zM70 662h819v88h-819v-88zM223 39l62 -64l649 621l-60 63zM557 -291h88v520h-88v-520z" />
    <glyph glyph-name="percent" unicode="%" horiz-adv-x="1261" 
d="M152 10l75 -45l889 1460l-76 45zM217 1253h232v88h-232v-88zM123 1016h86v229h-86v-229zM457 1016h88v229h-88v-229zM219 920h230v88h-230v-88zM813 418h229v88h-229v-88zM717 180h88v230h-88v-230zM1051 180h88v230h-88v-230zM813 84h229v88h-229v-88z" />
    <glyph glyph-name="ampersand" unicode="&#x26;" horiz-adv-x="1263" 
d="M274 1227l56 -70l293 227l-54 70zM627 1384l268 -356l72 53l-271 357zM260 1100l246 -326l69 53l-245 326zM98 436l52 -69l798 585l-53 70zM600 657l643 -845l72 53l-645 846zM1049 217h88v475h-88v-475zM82 307l215 -270l70 55l-217 270zM371 0h659v88h-659v-88z" />
    <glyph glyph-name="quotesingle" unicode="'" horiz-adv-x="319" 
d="M102 938l86 -10l50 512l-86 8z" />
    <glyph glyph-name="parenleft" unicode="(" horiz-adv-x="716" 
d="M389 1638v-88h260v88h-260zM43 836l82 -29l262 743l-84 29zM41 778l264 -805l84 29l-264 803zM391 0v-88h264v88h-264z" />
    <glyph glyph-name="parenright" unicode=")" horiz-adv-x="716" 
d="M68 1550h260v88h-260v-88zM330 1550l262 -743l82 29l-260 743zM328 2l84 -29l264 805l-84 27zM61 -88h265v88h-265v-88z" />
    <glyph glyph-name="asterisk" unicode="*" horiz-adv-x="1142" 
d="M526 977h88v457h-88v-457zM61 1032l435 -141l26 84l-434 141zM621 975l26 -84l434 141l-28 84zM575 834l267 -369l71 51l-268 371zM229 516l72 -51l266 369l-71 51z" />
    <glyph glyph-name="plus" unicode="+" horiz-adv-x="1228" 
d="M582 823h88v482h-88v-482zM94 731h484v88h-484v-88zM674 731h483v88h-483v-88zM582 244h88v485h-88v-485z" />
    <glyph glyph-name="comma" unicode="," horiz-adv-x="737" 
d="M274 133l78 -39l103 205l-78 39zM449 272l38 -176l86 19l-41 176zM61 0h424v88h-424v-88z" />
    <glyph glyph-name="hyphen" unicode="-" horiz-adv-x="630" 
d="M41 731h549v88h-549v-88z" />
    <glyph glyph-name="period" unicode="." horiz-adv-x="585" 
d="M102 131l78 -43l109 203l-78 43zM297 291l109 -203l77 43l-108 203zM186 0h213v88h-213v-88z" />
    <glyph glyph-name="slash" unicode="/" horiz-adv-x="827" 
d="M61 -109l84 -30l621 1749l-84 28z" />
    <glyph glyph-name="zero" unicode="0" horiz-adv-x="1310" 
d="M473 1346h365v88h-365v-88zM150 1147l61 -62l260 261l-61 61zM840 1346l260 -263l63 64l-262 260zM418 143l82 -28l397 1169l-84 29zM123 350h88v733h-88v-733zM1100 348h88v733h-88v-733zM150 287l260 -260l61 61l-260 260zM840 88l61 -63l260 260l-61 61zM473 0h365v88
h-365v-88z" />
    <glyph glyph-name="one" unicode="1" horiz-adv-x="872" 
d="M41 823l80 -37l301 639l-80 37zM424 109h88v1316h-88v-1316zM100 0h752v88h-752v-88z" />
    <glyph glyph-name="two" unicode="2" horiz-adv-x="1044" 
d="M82 1102l63 -62l357 357l-62 63zM506 1397l358 -357l62 62l-357 356zM88 150l66 -60l776 887l-66 59zM96 0h873v88h-873v-88z" />
    <glyph glyph-name="three" unicode="3" horiz-adv-x="940" 
d="M162 1346h543v88h-543v-88zM469 893l78 -41l266 504l-78 41zM203 762h536v88h-536v-88zM412 23l80 -37l366 815l-82 37zM61 383l277 -408l72 50l-277 407z" />
    <glyph glyph-name="four" unicode="4" horiz-adv-x="1017" 
d="M186 487l72 -51l657 963l-73 51zM764 0h88v1167h-88v-1167zM31 346h696v88h-696v-88z" />
    <glyph glyph-name="five" unicode="5" horiz-adv-x="1167" 
d="M162 1104l78 -41l190 344l-78 43zM375 1217h637v88h-637v-88zM184 995l754 -667l59 65l-755 668zM180 90h88v361h-88v-361zM700 90l64 -63l235 235l-61 62zM270 0h428v88h-428v-88z" />
    <glyph glyph-name="six" unicode="6" horiz-adv-x="1052" 
d="M49 121l82 -31l500 1329l-82 31zM164 172l65 -59l545 614l-65 57zM770 717l131 -627l86 19l-133 624zM131 0h811v88h-811v-88z" />
    <glyph glyph-name="seven" unicode="7" horiz-adv-x="1003" 
d="M20 1348h900v86h-900v-86zM92 23l74 -48l827 1321l-73 47z" />
    <glyph glyph-name="eight" unicode="8" horiz-adv-x="1062" 
d="M236 1346h598v88h-598v-88zM145 1309l308 -682l79 37l-305 679zM537 664l79 -37l304 680l-80 34zM190 537h680v88h-680v-88zM102 92h86v443h-86v-443zM872 92h89v443h-89v-443zM190 0h680v88h-680v-88z" />
    <glyph glyph-name="nine" unicode="9" horiz-adv-x="1024" 
d="M174 1346h594v88h-594v-88zM82 1055h88v288h-88v-288zM772 90h88v1251h-88v-1251zM82 981l631 -492l55 68l-631 494zM125 0h645v88h-645v-88z" />
    <glyph glyph-name="colon" unicode=":" horiz-adv-x="647" 
d="M102 815l78 -43l109 205l-78 41zM297 977l109 -205l77 43l-110 203zM186 684h213v88h-213v-88zM102 131l78 -43l109 203l-78 43zM297 291l109 -203l77 43l-110 203zM186 0h213v88h-213v-88z" />
    <glyph glyph-name="semicolon" unicode=";" horiz-adv-x="649" 
d="M104 817l76 -41l111 203l-78 41zM299 979l109 -203l77 41l-110 203zM188 688h213v86h-213v-86zM150 233l20 -83l176 38l-20 86zM354 -238h86v424h-86v-424zM102 78l207 -103l39 78l-207 103z" />
    <glyph glyph-name="less" unicode="&#x3c;" horiz-adv-x="638" 
d="M51 811l55 -68l472 390l-56 67zM51 672l471 -389l56 67l-472 389z" />
    <glyph glyph-name="equal" unicode="=" horiz-adv-x="1005" 
d="M61 731h883v88h-883v-88zM61 457h883v88h-883v-88z" />
    <glyph glyph-name="greater" unicode="&#x3e;" horiz-adv-x="638" 
d="M51 1133l471 -390l56 68l-472 389zM51 350l55 -67l472 389l-56 67z" />
    <glyph glyph-name="question" unicode="?" horiz-adv-x="862" 
d="M20 1346h748v88h-748v-88zM195 575l71 -53l576 760l-70 53zM268 426h226v88h-226v-88zM356 270l101 -174l75 43l-100 174zM178 133l78 -39l86 176l-78 39zM260 0h193v88h-193v-88z" />
    <glyph glyph-name="at" unicode="@" horiz-adv-x="1640" 
d="M801 1393l669 -482l52 70l-670 483zM135 973l55 -68l607 488l-56 67zM623 913h432v88h-432v-88zM1470 504h89v405h-89v-405zM102 0h88v903h-88v-903zM922 113h88v770h-88v-770zM602 590l264 -189l52 72l-265 186zM395 260l84 -29l121 357l-84 28zM1087 63l68 -57l381 438
l-66 58zM461 141l600 -166l22 86l-600 166z" />
    <glyph glyph-name="A" unicode="A" horiz-adv-x="1325" 
d="M20 6l82 -31l557 1442l-81 33zM662 1417l557 -1442l81 31l-557 1444zM334 477h653v88h-653v-88z" />
    <glyph glyph-name="B" unicode="B" horiz-adv-x="1046" 
d="M203 1403l483 -539l66 60l-484 538zM164 92h86v1256h-86v-1256zM252 807l10 -86l606 76l-10 86zM252 655l729 -567l55 70l-731 567zM252 0h727v88h-727v-88z" />
    <glyph glyph-name="C" unicode="C" horiz-adv-x="1140" 
d="M188 1090l64 -62l364 381l-63 61zM618 1409l367 -381l62 62l-365 380zM164 90h88v936h-88v-936zM254 0h825v88h-825v-88z" />
    <glyph glyph-name="D" unicode="D" horiz-adv-x="1271" 
d="M41 1346h743v88h-743v-88zM788 1343l332 -391l68 56l-332 393zM221 111h88v1212h-88v-1212zM1122 465h88v483h-88v-483zM788 88l66 -57l334 372l-66 60zM41 0h745v88h-745v-88z" />
    <glyph glyph-name="E" unicode="E" horiz-adv-x="1114" 
d="M254 1346h747v88h-747v-88zM164 90h88v1253h-88v-1253zM297 643h565v88h-565v-88zM254 0h747v88h-747v-88z" />
    <glyph glyph-name="F" unicode="F" horiz-adv-x="1048" 
d="M41 1346h967v88h-967v-88zM215 0h88v1294h-88v-1294zM344 731h586v88h-586v-88z" />
    <glyph glyph-name="G" unicode="G" horiz-adv-x="1187" 
d="M254 1346h811v88h-811v-88zM164 33h88v1308h-88v-1308zM434 678h582v88h-582v-88zM256 33l59 -66l701 643l-60 66zM1018 0h88v676h-88v-676z" />
    <glyph glyph-name="H" unicode="H" horiz-adv-x="1173" 
d="M164 0h88v1434h-88v-1434zM924 0h86v1434h-86v-1434zM301 666h567v88h-567v-88z" />
    <glyph glyph-name="I" unicode="I" horiz-adv-x="915" 
d="M61 1434v-88h793v88h-793zM414 1321v-1208h88v1208h-88zM61 88v-88h793v88h-793z" />
    <glyph glyph-name="J" unicode="J" horiz-adv-x="1097" 
d="M190 1346h887v88h-887v-88zM702 90h89v1227h-89v-1227zM102 90h86v412h-86v-412zM188 0h512v88h-512v-88z" />
    <glyph glyph-name="K" unicode="K" horiz-adv-x="1120" 
d="M254 780l59 -65l734 671l-60 64zM164 0h88v1434h-88v-1434zM254 649l735 -674l60 66l-736 672z" />
    <glyph glyph-name="L" unicode="L" horiz-adv-x="1073" 
d="M164 90h88v1344h-88v-1344zM256 0h797v88h-797v-88z" />
    <glyph glyph-name="M" unicode="M" horiz-adv-x="1765" 
d="M258 1415l551 -1227l80 35l-551 1227zM891 223l80 -35l536 1227l-80 35zM164 0h88v1417h-88v-1417zM1513 0h89v1417h-89v-1417z" />
    <glyph glyph-name="N" unicode="N" horiz-adv-x="1300" 
d="M164 0h88v1434h-88v-1434zM1049 0h88v1434h-88v-1434zM256 1257l715 -1259l76 43l-713 1259z" />
    <glyph glyph-name="O" unicode="O" horiz-adv-x="1554" 
d="M717 1452l-676 -676l63 -63l674 678zM844 1452l-64 -61l670 -674l63 61zM1450 715l-674 -678l62 -62l673 678zM104 711l-61 -62l668 -674l63 62z" />
    <glyph glyph-name="P" unicode="P" horiz-adv-x="1208" 
d="M111 1434v-88h804v88h-804zM842 1341l-62 -61l221 -229l64 61zM215 1315v-1315h88v1315h-88zM1090 1090l-322 -342l66 -60l321 340zM332 686v-88h583v88h-583z" />
    <glyph glyph-name="Q" unicode="Q" horiz-adv-x="1189" 
d="M254 1434v-88h682v88h-682zM164 1343v-1251h88v1251h-88zM938 1343v-1251h88v1251h-88zM487 356l-71 -49l413 -620l74 49zM254 88v-88h303v88h-303zM731 88v-88h205v88h-205z" />
    <glyph glyph-name="R" unicode="R" horiz-adv-x="1085" 
d="M117 1346h825v88h-825v-88zM188 0h88v1325h-88v-1325zM897 737h88v588h-88v-588zM297 629h645v88h-645v-88zM473 596l240 -629l82 31l-240 629z" />
    <glyph glyph-name="S" unicode="S" horiz-adv-x="980" 
d="M45 815l64 -63l634 634l-61 64zM70 662h819v88h-819v-88zM223 39l62 -64l647 621l-60 63z" />
    <glyph glyph-name="T" unicode="T" horiz-adv-x="1026" 
d="M20 1346h986v88h-986v-88zM469 0h88v1321h-88v-1321z" />
    <glyph glyph-name="U" unicode="U" horiz-adv-x="1247" 
d="M164 90h88v1344h-88v-1344zM956 0h86v1434h-86v-1434zM641 88l59 -63l254 235l-61 64zM254 0h385v88h-385v-88z" />
    <glyph glyph-name="V" unicode="V" horiz-adv-x="985" 
d="M41 1430l365 -1455l86 21l-365 1454zM496 -4l84 -21l364 1455l-84 20z" />
    <glyph glyph-name="W" unicode="W" horiz-adv-x="1658" 
d="M41 1430l307 -1430l86 18l-307 1430zM436 18l86 -18l307 1430l-86 18zM834 1430l305 -1430l86 18l-305 1430zM1227 18l86 -18l305 1430l-86 18z" />
    <glyph glyph-name="X" unicode="X" horiz-adv-x="1523" 
d="M10 1397l697 -518l53 71l-697 516zM762 950l51 -71l700 516l-53 71zM109 16l73 -49l578 871l-74 49zM760 838l579 -871l74 49l-579 871z" />
    <glyph glyph-name="Y" unicode="Y" horiz-adv-x="1378" 
d="M10 1386l617 -577l61 63l-618 578zM690 872l60 -63l618 575l-59 66zM645 0h88v823h-88v-823z" />
    <glyph glyph-name="Z" unicode="Z" horiz-adv-x="1531" 
d="M49 1346h1411v88h-1411v-88zM18 158l58 -68l1440 1186l-56 67zM76 0h1407v88h-1407v-88z" />
    <glyph glyph-name="bracketleft" unicode="[" horiz-adv-x="626" 
d="M254 1638v-88h309v88h-309zM164 1548v-1546h88v1546h-88zM254 0v-88h309v88h-309z" />
    <glyph glyph-name="backslash" unicode="\" horiz-adv-x="827" 
d="M61 1610l621 -1749l84 30l-621 1747z" />
    <glyph glyph-name="bracketright" unicode="]" horiz-adv-x="624" 
d="M61 1550h310v88h-310v-88zM373 2h88v1546h-88v-1546zM61 -88h310v88h-310v-88z" />
    <glyph glyph-name="asciicircum" unicode="^" horiz-adv-x="751" 
d="M61 936l80 -35l230 514l-80 35zM381 1415l229 -514l80 35l-229 514z" />
    <glyph glyph-name="underscore" unicode="_" horiz-adv-x="903" 
d="M20 -88h863v88h-863v-88z" />
    <glyph glyph-name="grave" unicode="`" horiz-adv-x="483" 
d="M0 1995l428 -357l55 68l-426 356z" />
    <glyph glyph-name="a" unicode="a" horiz-adv-x="1060" 
d="M61 733h809v86h-809v-86zM207 489l33 -81l622 241l-33 82zM872 0h86v731h-86v-731zM244 39l61 -64l565 557l-61 62zM150 43h88v358h-88v-358z" />
    <glyph glyph-name="b" unicode="b" horiz-adv-x="1003" 
d="M143 1434v-1434h88v1434h-88zM260 723v-88h643v88h-643zM236 37l59 -66l668 594l-60 68z" />
    <glyph glyph-name="c" unicode="c" horiz-adv-x="1024" 
d="M446 791l365 -351l61 64l-366 350zM41 129l80 -37l321 699l-80 36zM121 0h852v88h-852v-88z" />
    <glyph glyph-name="d" unicode="d" horiz-adv-x="1003" 
d="M772 0h88v1434h-88v-1434zM100 635h643v88h-643v-88zM41 565l668 -594l59 66l-668 596z" />
    <glyph glyph-name="e" unicode="e" horiz-adv-x="1241" 
d="M500 774l643 -297l37 80l-643 297zM82 465l63 -59l353 368l-64 60zM221 393h905v88h-905v-88zM102 90h86v313h-86v-313zM190 0h707v88h-707v-88z" />
    <glyph glyph-name="f" unicode="f" horiz-adv-x="1161" 
d="M362 887l58 -66l641 572l-57 65zM1063 1126h88v265h-88v-265zM31 731h1003v88h-1003v-88zM373 0h88v709h-88v-709z" />
    <glyph glyph-name="g" unicode="g" horiz-adv-x="1064" 
d="M199 1145l16 -86l506 100l-19 86zM727 90h88v1065h-88v-1065zM123 563h88v490h-88v-490zM215 561l43 -78l467 252l-41 78zM340 143l68 -55l317 414l-68 53zM817 498l111 -498l86 18l-111 498zM410 0h315v88h-315v-88z" />
    <glyph glyph-name="h" unicode="h" horiz-adv-x="917" 
d="M143 0h88v1434h-88v-1434zM266 731h439v88h-439v-88zM707 0h88v729h-88v-729z" />
    <glyph glyph-name="i" unicode="i" horiz-adv-x="442" 
d="M145 1346h154v88h-154v-88zM49 1184h88v153h-88v-153zM307 1184h86v153h-86v-153zM145 1087h154v89h-154v-89zM178 819v-819h88v819h-88z" />
    <glyph glyph-name="j" unicode="j" horiz-adv-x="712" 
d="M414 1346h153v88h-153v-88zM317 1184h89v153h-89v-153zM575 1184h87v153h-87v-153zM414 1087h153v89h-153v-89zM449 0h88v819h-88v-819zM10 289l377 -289l53 70l-377 288z" />
    <glyph glyph-name="k" unicode="k" horiz-adv-x="962" 
d="M143 0h88v1434h-88v-1434zM264 608h651v88h-651v-88zM233 537l564 -562l61 62l-563 561z" />
    <glyph glyph-name="l" unicode="l" horiz-adv-x="485" 
d="M143 90h88v1344h-88v-1344zM233 0h242v88h-242v-88z" />
    <glyph glyph-name="m" unicode="m" horiz-adv-x="1460" 
d="M213 731h1034v88h-1034v-88zM123 0h88v729h-88v-729zM1249 0h88v729h-88v-729zM696 0h88v696h-88v-696z" />
    <glyph glyph-name="n" unicode="n" horiz-adv-x="1118" 
d="M215 553l31 -84l770 283l-31 84zM123 0h88v819h-88v-819zM877 0h88v698h-88v-698z" />
    <glyph glyph-name="o" unicode="o" horiz-adv-x="1048" 
d="M92 473l64 -61l362 360l-61 64zM532 772l363 -358l61 61l-360 361zM530 39l64 -64l362 365l-61 61zM94 338l361 -363l63 62l-362 362z" />
    <glyph glyph-name="p" unicode="p" horiz-adv-x="1095" 
d="M240 909l63 -61l336 336l-61 61zM645 1184l338 -336l61 61l-335 336zM143 0h88v1229h-88v-1229zM645 504l62 -62l335 336l-61 64zM240 778l335 -336l64 62l-336 336z" />
    <glyph glyph-name="q" unicode="q" horiz-adv-x="1095" 
d="M51 909l62 -61l338 336l-64 61zM457 1184l336 -336l63 61l-338 336zM864 1229v-1229h88v1229h-88zM53 778l336 -336l62 62l-336 338zM457 504l63 -62l336 336l-63 62z" />
    <glyph glyph-name="r" unicode="r" horiz-adv-x="794" 
d="M123 0h88v819h-88v-819zM240 731h301v88h-301v-88zM543 731l170 -121l51 70l-170 123z" />
    <glyph glyph-name="s" unicode="s" horiz-adv-x="974" 
d="M127 731h786v88h-786v-88zM152 651l608 -545l59 66l-610 545zM61 0h787v88h-787v-88z" />
    <glyph glyph-name="t" unicode="t" horiz-adv-x="755" 
d="M334 961h88v473h-88v-473zM20 844h715v88h-715v-88zM334 0h88v819h-88v-819z" />
    <glyph glyph-name="u" unicode="u" horiz-adv-x="987" 
d="M123 90h88v729h-88v-729zM776 90h88v729h-88v-729zM213 0h561v88h-561v-88z" />
    <glyph glyph-name="v" unicode="v" horiz-adv-x="1026" 
d="M20 797l414 -822l80 39l-416 822zM516 14l78 -39l412 822l-78 39z" />
    <glyph glyph-name="w" unicode="w" horiz-adv-x="1531" 
d="M45 809l274 -834l84 27l-274 834zM406 2l83 -27l275 834l-84 27zM766 809l274 -834l84 27l-274 834zM1126 2l82 -27l275 834l-84 27z" />
    <glyph glyph-name="x" unicode="x" horiz-adv-x="991" 
d="M41 764l397 -295l54 70l-400 297zM500 539l53 -70l397 295l-51 72zM119 25l71 -50l297 447l-71 47zM504 422l297 -447l71 50l-297 444z" />
    <glyph glyph-name="y" unicode="y" horiz-adv-x="921" 
d="M31 1223l315 -865l82 29l-313 866zM432 387l82 -29l315 865l-84 30zM555 461l244 -371l71 47l-243 371zM160 0h637v88h-637v-88z" />
    <glyph glyph-name="z" unicode="z" horiz-adv-x="1226" 
d="M41 731h993v88h-993v-88zM135 164l47 -74l899 565l-47 74zM182 0h1004v88h-1004v-88z" />
    <glyph glyph-name="braceleft" unicode="{" horiz-adv-x="647" 
d="M354 1638v-88h232v88h-232zM264 1548v-561h88v561h-88zM43 862l41 -76l223 123l-43 76zM41 709l223 -125l43 75l-223 125zM264 582v-580h88v580h-88zM354 0v-88h232v88h-232z" />
    <glyph glyph-name="bar" unicode="|" horiz-adv-x="415" 
d="M164 0h88v1434h-88v-1434z" />
    <glyph glyph-name="braceright" unicode="}" horiz-adv-x="645" 
d="M61 1550h230v88h-230v-88zM293 987h88v561h-88v-561zM338 909l223 -123l41 76l-221 123zM338 659l43 -75l223 125l-43 75zM293 2h88v580h-88v-580zM61 -88h230v88h-230v-88z" />
    <glyph glyph-name="asciitilde" unicode="~" horiz-adv-x="1357" 
d="M354 973l629 -627l61 62l-626 628zM41 754l65 -58l238 277l-68 57zM1055 410l67 -58l195 236l-68 55z" />
    <glyph glyph-name="exclamdown" unicode="&#xa1;" horiz-adv-x="477" 
d="M336 1346v88h-193v-88h193zM225 1163l-86 176l-78 -39l86 -176zM416 1294l-76 43l-100 -174l75 -43zM274 0v1006h-88v-1006h88z" />
    <glyph glyph-name="cent" unicode="&#xa2;" horiz-adv-x="1042" 
d="M475 1204h88v496h-88v-496zM453 1139l366 -351l62 64l-369 350zM49 477l80 -37l322 699l-80 37zM131 348h850v88h-850v-88zM475 -164h88v481h-88v-481z" />
    <glyph glyph-name="sterling" unicode="&#xa3;" horiz-adv-x="1079" 
d="M104 125l82 -37l619 1325l-82 37zM362 686v88h-329v-88h329zM1006 686v88h-496v-88h496zM737 88l58 -68l221 189l-55 67zM188 0h547v88h-547v-88z" />
    <glyph glyph-name="yen" unicode="&#xa5;" horiz-adv-x="1388" 
d="M10 1386l621 -581l61 63l-622 582zM696 868l60 -63l622 579l-59 66zM649 0h88v819h-88v-819zM625 690v88h-439v-88h439zM1198 690v88h-438v-88h438z" />
    <glyph glyph-name="brokenbar" unicode="&#xa6;" horiz-adv-x="415" 
d="M164 895h88v539h-88v-539zM164 0h88v539h-88v-539z" />
    <glyph glyph-name="section" unicode="&#xa7;" horiz-adv-x="798" 
d="M154 1231l43 -78l391 219l-43 78zM596 1198h88v236h-88v-236zM143 1081l498 -389l55 70l-497 387zM121 815l39 -80l221 107l-37 78zM102 664l498 -388l55 70l-497 387zM416 586l37 -80l223 104l-39 80zM211 51l43 -76l389 222l-43 75zM115 0h88v236h-88v-236z" />
    <glyph glyph-name="dieresis" unicode="&#xa8;" horiz-adv-x="788" 
d="M0 1769l78 -43l108 203l-77 43zM195 1929l108 -203l78 43l-109 203zM408 1769l77 -43l109 203l-78 43zM602 1929l109 -203l77 43l-108 203zM84 1638h213v88h-213v-88zM492 1638h213v88h-213v-88z" />
    <glyph glyph-name="guillemotleft" unicode="&#xab;" horiz-adv-x="790" 
d="M82 705l61 -62l277 277l-62 61zM350 705l62 -62l276 277l-61 61zM420 358l-277 277l-61 -62l276 -276zM688 358l-276 277l-62 -62l277 -276z" />
    <glyph glyph-name="degree" unicode="&#xb0;" horiz-adv-x="544" 
d="M156 1346h231v88h-231v-88zM61 1108h86v229h-86v-229zM395 1108h88v229h-88v-229zM158 1012h229v88h-229v-88z" />
    <glyph glyph-name="plusminus" unicode="&#xb1;" horiz-adv-x="1009" 
d="M461 823h88v396h-88v-396zM61 731h398v88h-398v-88zM551 731h397v88h-397v-88zM461 332h88v397h-88v-397zM63 90h881v88h-881v-88z" />
    <glyph glyph-name="acute" unicode="&#xb4;" horiz-adv-x="481" 
d="M0 1706l55 -68l426 359l-55 65z" />
    <glyph glyph-name="paragraph" unicode="&#xb6;" horiz-adv-x="847" 
d="M47 954l57 -65l580 495l-57 66zM438 -266h88v1437h-88v-1437zM594 -266h88v1437h-88v-1437zM41 825l330 -340l63 60l-330 342z" />
    <glyph glyph-name="periodcentered" unicode="&#xb7;" horiz-adv-x="544" 
d="M82 541l78 -43l108 202l-78 43zM276 700l109 -202l78 43l-109 202zM166 410h213v88h-213v-88z" />
    <glyph glyph-name="cedilla" unicode="&#xb8;" horiz-adv-x="425" 
d="M0 -195l391 -165l35 79l-391 166zM426 -451l-35 80l-391 -166l35 -79z" />
    <glyph glyph-name="guillemotright" unicode="&#xbb;" horiz-adv-x="790" 
d="M102 920l277 -277l61 62l-276 276zM371 920l276 -277l62 62l-277 276zM440 573l-61 62l-277 -277l62 -61zM709 573l-62 62l-276 -277l61 -61z" />
    <glyph glyph-name="questiondown" unicode="&#xbf;" horiz-adv-x="862" 
d="M602 1434h-192v-88h192v88zM684 1300l-78 39l-86 -176l78 -39zM506 1163l-100 174l-76 -43l100 -174zM594 1008h-225v-88h225v88zM668 858l-72 53l-576 -759l70 -54zM842 88h-748v-88h748v88z" />
    <glyph glyph-name="Agrave" unicode="&#xc0;" horiz-adv-x="1325" 
d="M422 1995l428 -357l55 68l-426 356zM20 6l82 -31l557 1442l-81 33zM662 1417l557 -1442l81 31l-557 1444zM334 477h653v88h-653v-88z" />
    <glyph glyph-name="Aacute" unicode="&#xc1;" horiz-adv-x="1325" 
d="M422 1706l55 -68l426 359l-55 65zM20 6l82 -31l557 1442l-81 33zM662 1417l557 -1442l81 31l-557 1444zM334 477h653v88h-653v-88z" />
    <glyph glyph-name="Acircumflex" unicode="&#xc2;" horiz-adv-x="1325" 
d="M391 1681l78 -43l188 359l-77 41zM666 1997l190 -359l78 43l-191 357zM20 6l82 -31l557 1442l-81 33zM662 1417l557 -1442l81 31l-557 1444zM334 477h653v88h-653v-88z" />
    <glyph glyph-name="Atilde" unicode="&#xc3;" horiz-adv-x="1325" 
d="M430 1894l420 -256l45 74l-418 258zM903 1720l84 -20l55 231l-86 21zM285 1675l86 -20l53 231l-86 21zM20 6l82 -31l557 1442l-81 33zM662 1417l557 -1442l81 31l-557 1444zM334 477h653v88h-653v-88z" />
    <glyph glyph-name="Adieresis" unicode="&#xc4;" horiz-adv-x="1325" 
d="M270 1769l78 -43l109 203l-78 43zM465 1929l108 -203l78 43l-108 203zM678 1769l78 -43l108 203l-78 43zM872 1929l109 -203l78 43l-109 203zM354 1638h213v88h-213v-88zM762 1638h213v88h-213v-88zM20 6l82 -31l557 1442l-81 33zM662 1417l557 -1442l81 31l-557 1444z
M334 477h653v88h-653v-88z" />
    <glyph glyph-name="Aring" unicode="&#xc5;" horiz-adv-x="1325" 
d="M551 1964h223v88h-223v-88zM455 1735h88v221h-88v-221zM782 1735h88v221h-88v-221zM551 1638h223v88h-223v-88zM20 6l82 -31l557 1442l-81 33zM662 1417l557 -1442l81 31l-557 1444zM334 477h653v88h-653v-88z" />
    <glyph glyph-name="AE" unicode="&#xc6;" horiz-adv-x="1646" 
d="M20 18l78 -36l703 1433l-78 39zM858 1346h686v88h-686v-88zM768 92h88v1249h-88v-1249zM901 643h504v88h-504v-88zM389 477h348v88h-348v-88zM858 0h686v88h-686v-88z" />
    <glyph glyph-name="Ccedilla" unicode="&#xc7;" horiz-adv-x="1140" 
d="M188 1090l64 -62l364 381l-63 61zM618 1409l367 -381l62 62l-365 380zM164 90h88v936h-88v-936zM254 0h825v88h-825v-88zM451 -195l391 -165l35 79l-392 166zM877 -451l-35 80l-391 -166l34 -79z" />
    <glyph glyph-name="Egrave" unicode="&#xc8;" horiz-adv-x="1114" 
d="M315 1995l428 -357l56 68l-426 356zM254 1346h747v88h-747v-88zM164 90h88v1253h-88v-1253zM297 643h565v88h-565v-88zM254 0h747v88h-747v-88z" />
    <glyph glyph-name="Eacute" unicode="&#xc9;" horiz-adv-x="1114" 
d="M315 1706l56 -68l426 359l-56 65zM254 1346h747v88h-747v-88zM164 90h88v1253h-88v-1253zM297 643h565v88h-565v-88zM254 0h747v88h-747v-88z" />
    <glyph glyph-name="Ecircumflex" unicode="&#xca;" horiz-adv-x="1114" 
d="M285 1681l77 -43l189 359l-78 41zM559 1997l191 -359l77 43l-190 357zM254 1346h747v88h-747v-88zM164 90h88v1253h-88v-1253zM297 643h565v88h-565v-88zM254 0h747v88h-747v-88z" />
    <glyph glyph-name="Edieresis" unicode="&#xcb;" horiz-adv-x="1114" 
d="M164 1769l78 -43l108 203l-78 43zM358 1929l109 -203l78 43l-109 203zM571 1769l78 -43l109 203l-78 43zM766 1929l108 -203l78 43l-108 203zM248 1638h213v88h-213v-88zM655 1638h213v88h-213v-88zM254 1346h747v88h-747v-88zM164 90h88v1253h-88v-1253zM297 643h565v88
h-565v-88zM254 0h747v88h-747v-88z" />
    <glyph glyph-name="Igrave" unicode="&#xcc;" horiz-adv-x="915" 
d="M217 1995l428 -357l55 68l-426 356zM61 1434v-88h793v88h-793zM414 1321v-1208h88v1208h-88zM61 88v-88h793v88h-793z" />
    <glyph glyph-name="Iacute" unicode="&#xcd;" horiz-adv-x="915" 
d="M217 1706l55 -68l426 359l-55 65zM61 1434v-88h793v88h-793zM414 1321v-1208h88v1208h-88zM61 88v-88h793v88h-793z" />
    <glyph glyph-name="Icircumflex" unicode="&#xce;" horiz-adv-x="915" 
d="M186 1681l78 -43l189 359l-78 41zM461 1997l190 -359l78 43l-190 357zM61 1434v-88h793v88h-793zM414 1321v-1208h88v1208h-88zM61 88v-88h793v88h-793z" />
    <glyph glyph-name="Idieresis" unicode="&#xcf;" horiz-adv-x="915" 
d="M66 1769l77 -43l109 203l-78 43zM260 1929l109 -203l77 43l-108 203zM473 1769l78 -43l108 203l-77 43zM668 1929l108 -203l78 43l-109 203zM150 1638h212v88h-212v-88zM557 1638h213v88h-213v-88zM61 1434v-88h793v88h-793zM414 1321v-1208h88v1208h-88zM61 88v-88h793
v88h-793z" />
    <glyph glyph-name="Ntilde" unicode="&#xd1;" horiz-adv-x="1300" 
d="M418 1894l420 -256l45 74l-418 258zM891 1720l84 -20l55 231l-86 21zM272 1675l86 -20l54 231l-86 21zM164 0h88v1434h-88v-1434zM1049 0h88v1434h-88v-1434zM256 1257l715 -1259l76 43l-713 1259z" />
    <glyph glyph-name="Ograve" unicode="&#xd2;" horiz-adv-x="1554" 
d="M537 1995l428 -357l55 68l-426 356zM717 1452l-676 -676l63 -63l674 678zM844 1452l-64 -61l670 -674l63 61zM1450 715l-674 -678l62 -62l673 678zM104 711l-61 -62l668 -674l63 62z" />
    <glyph glyph-name="Oacute" unicode="&#xd3;" horiz-adv-x="1554" 
d="M537 1706l55 -68l426 359l-55 65zM717 1452l-676 -676l63 -63l674 678zM844 1452l-64 -61l670 -674l63 61zM1450 715l-674 -678l62 -62l673 678zM104 711l-61 -62l668 -674l63 62z" />
    <glyph glyph-name="Ocircumflex" unicode="&#xd4;" horiz-adv-x="1554" 
d="M506 1681l78 -43l188 359l-78 41zM780 1997l191 -359l78 43l-191 357zM717 1452l-676 -676l63 -63l674 678zM844 1452l-64 -61l670 -674l63 61zM1450 715l-674 -678l62 -62l673 678zM104 711l-61 -62l668 -674l63 62z" />
    <glyph glyph-name="Odieresis" unicode="&#xd6;" horiz-adv-x="1554" 
d="M385 1769l78 -43l108 203l-77 43zM580 1929l108 -203l78 43l-109 203zM793 1769l77 -43l109 203l-78 43zM987 1929l109 -203l78 43l-109 203zM469 1638h213v88h-213v-88zM877 1638h213v88h-213v-88zM717 1452l-676 -676l63 -63l674 678zM844 1452l-64 -61l670 -674l63 61
zM1450 715l-674 -678l62 -62l673 678zM104 711l-61 -62l668 -674l63 62z" />
    <glyph glyph-name="multiply" unicode="&#xd7;" horiz-adv-x="1075" 
d="M82 1139l389 -389l64 61l-390 389zM541 811l63 -61l389 389l-61 61zM82 350l63 -61l390 393l-64 61zM541 680l391 -391l61 61l-389 391z" />
    <glyph glyph-name="Oslash" unicode="&#xd8;" horiz-adv-x="1554" 
d="M717 1452l61 -61l-674 -678l-63 63zM1450 717l-295 297l-694 -662l313 -315l-63 -62l-314 318l-254 -242l-61 64l252 239l-291 295l61 62l293 -295l695 661l-312 314l64 61l313 -313l254 241l62 -63l-254 -242l294 -297zM838 -25l-62 62l674 678l61 -62z" />
    <glyph glyph-name="Ugrave" unicode="&#xd9;" horiz-adv-x="1247" 
d="M383 1995l428 -357l55 68l-426 356zM164 90h88v1344h-88v-1344zM956 0h86v1434h-86v-1434zM641 88l59 -63l254 235l-61 64zM254 0h385v88h-385v-88z" />
    <glyph glyph-name="Uacute" unicode="&#xda;" horiz-adv-x="1247" 
d="M383 1706l55 -68l426 359l-55 65zM164 90h88v1344h-88v-1344zM956 0h86v1434h-86v-1434zM641 88l59 -63l254 235l-61 64zM254 0h385v88h-385v-88z" />
    <glyph glyph-name="Ucircumflex" unicode="&#xdb;" horiz-adv-x="1247" 
d="M352 1681l78 -43l188 359l-77 41zM627 1997l190 -359l78 43l-190 357zM164 90h88v1344h-88v-1344zM956 0h86v1434h-86v-1434zM641 88l59 -63l254 235l-61 64zM254 0h385v88h-385v-88z" />
    <glyph glyph-name="Udieresis" unicode="&#xdc;" horiz-adv-x="1247" 
d="M231 1769l78 -43l109 203l-78 43zM426 1929l109 -203l77 43l-108 203zM639 1769l78 -43l108 203l-77 43zM834 1929l108 -203l78 43l-109 203zM315 1638h213v88h-213v-88zM723 1638h213v88h-213v-88zM164 90h88v1344h-88v-1344zM956 0h86v1434h-86v-1434zM641 88l59 -63
l254 235l-61 64zM254 0h385v88h-385v-88z" />
    <glyph glyph-name="Yacute" unicode="&#xdd;" horiz-adv-x="1378" 
d="M449 1706l55 -68l426 359l-56 65zM10 1386l617 -577l61 63l-618 578zM690 872l60 -63l618 575l-59 66zM645 0h88v823h-88v-823z" />
    <glyph glyph-name="germandbls" unicode="&#xdf;" horiz-adv-x="882" 
d="M0 1599l618 -690l66 58l-618 692zM125 -266h88v1626h-88v-1626zM358 647l62 -61l260 252l-62 63zM217 643l496 -553l65 57l-495 555zM338 0h493v88h-493v-88z" />
    <glyph glyph-name="agrave" unicode="&#xe0;" horiz-adv-x="1060" 
d="M283 1380l428 -356l55 68l-426 356zM61 733h809v86h-809v-86zM207 489l33 -81l622 241l-33 82zM872 0h86v731h-86v-731zM244 39l61 -64l565 557l-61 62zM150 43h88v358h-88v-358z" />
    <glyph glyph-name="aacute" unicode="&#xe1;" horiz-adv-x="1060" 
d="M283 1092l55 -68l426 358l-55 66zM61 733h809v86h-809v-86zM207 489l33 -81l622 241l-33 82zM872 0h86v731h-86v-731zM244 39l61 -64l565 557l-61 62zM150 43h88v358h-88v-358z" />
    <glyph glyph-name="acircumflex" unicode="&#xe2;" horiz-adv-x="1060" 
d="M252 1067l78 -43l188 358l-78 41zM526 1382l191 -358l78 43l-191 356zM61 733h809v86h-809v-86zM207 489l33 -81l622 241l-33 82zM872 0h86v731h-86v-731zM244 39l61 -64l565 557l-61 62zM150 43h88v358h-88v-358z" />
    <glyph glyph-name="atilde" unicode="&#xe3;" horiz-adv-x="1060" 
d="M291 1280l420 -256l45 74l-418 258zM764 1106l84 -21l55 232l-86 20zM145 1061l86 -21l54 232l-86 20zM61 733h809v86h-809v-86zM207 489l33 -81l622 241l-33 82zM872 0h86v731h-86v-731zM244 39l61 -64l565 557l-61 62zM150 43h88v358h-88v-358z" />
    <glyph glyph-name="adieresis" unicode="&#xe4;" horiz-adv-x="1060" 
d="M131 1155l78 -43l108 203l-77 43zM326 1315l108 -203l78 43l-109 203zM539 1155l77 -43l109 203l-78 43zM733 1315l109 -203l78 43l-109 203zM215 1024h213v88h-213v-88zM623 1024h213v88h-213v-88zM61 733h809v86h-809v-86zM207 489l33 -81l622 241l-33 82zM872 0h86
v731h-86v-731zM244 39l61 -64l565 557l-61 62zM150 43h88v358h-88v-358z" />
    <glyph glyph-name="aring" unicode="&#xe5;" horiz-adv-x="1060" 
d="M412 1350h223v88h-223v-88zM315 1120h88v221h-88v-221zM643 1120h88v221h-88v-221zM412 1024h223v88h-223v-88zM61 733h809v86h-809v-86zM207 489l33 -81l622 241l-33 82zM872 0h86v731h-86v-731zM244 39l61 -64l565 557l-61 62zM150 43h88v358h-88v-358z" />
    <glyph glyph-name="ae" unicode="&#xe6;" horiz-adv-x="1724" 
d="M1100 741l567 -264l37 80l-567 264zM61 733h687v86h-687v-86zM842 584l63 -60l197 209l-64 60zM750 92h86v637h-86v-637zM203 526l33 -82l501 197l-32 82zM860 393h772v88h-772v-88zM240 39l61 -64l436 431l-61 61zM145 43h88v395h-88v-395zM840 0h581v88h-581v-88z" />
    <glyph glyph-name="ccedilla" unicode="&#xe7;" horiz-adv-x="1024" 
d="M446 791l365 -351l61 64l-366 350zM41 129l80 -37l321 699l-80 36zM121 0h852v88h-852v-88zM295 -195l391 -165l35 79l-391 166zM721 -451l-35 80l-391 -166l35 -79z" />
    <glyph glyph-name="egrave" unicode="&#xe8;" horiz-adv-x="1241" 
d="M371 1380l428 -356l55 68l-426 356zM500 774l643 -297l37 80l-643 297zM82 465l63 -59l353 368l-64 60zM221 393h905v88h-905v-88zM102 90h86v313h-86v-313zM190 0h707v88h-707v-88z" />
    <glyph glyph-name="eacute" unicode="&#xe9;" horiz-adv-x="1241" 
d="M371 1092l55 -68l426 358l-55 66zM500 774l643 -297l37 80l-643 297zM82 465l63 -59l353 368l-64 60zM221 393h905v88h-905v-88zM102 90h86v313h-86v-313zM190 0h707v88h-707v-88z" />
    <glyph glyph-name="ecircumflex" unicode="&#xea;" horiz-adv-x="1241" 
d="M340 1067l78 -43l188 358l-78 41zM614 1382l191 -358l78 43l-191 356zM500 774l643 -297l37 80l-643 297zM82 465l63 -59l353 368l-64 60zM221 393h905v88h-905v-88zM102 90h86v313h-86v-313zM190 0h707v88h-707v-88z" />
    <glyph glyph-name="edieresis" unicode="&#xeb;" horiz-adv-x="1241" 
d="M219 1155l78 -43l109 203l-78 43zM414 1315l108 -203l78 43l-108 203zM627 1155l78 -43l108 203l-78 43zM821 1315l109 -203l78 43l-109 203zM303 1024h213v88h-213v-88zM711 1024h213v88h-213v-88zM500 774l643 -297l37 80l-643 297zM82 465l63 -59l353 368l-64 60z
M221 393h905v88h-905v-88zM102 90h86v313h-86v-313zM190 0h707v88h-707v-88z" />
    <glyph glyph-name="igrave" unicode="&#xec;" horiz-adv-x="333" 
d="M-74 1380l428 -356l56 68l-426 356zM123 817v-819h88v819h-88z" />
    <glyph glyph-name="iacute" unicode="&#xed;" horiz-adv-x="333" 
d="M-74 1092l56 -68l426 358l-56 66zM123 817v-819h88v819h-88z" />
    <glyph glyph-name="icircumflex" unicode="&#xee;" horiz-adv-x="333" 
d="M-104 1067l77 -43l189 358l-78 41zM170 1382l190 -358l78 43l-190 356zM123 817v-819h88v819h-88z" />
    <glyph glyph-name="idieresis" unicode="&#xef;" horiz-adv-x="333" 
d="M-225 1155l78 -43l108 203l-78 43zM-31 1315l109 -203l78 43l-109 203zM182 1155l78 -43l109 203l-78 43zM377 1315l108 -203l78 43l-108 203zM-141 1024h213v88h-213v-88zM266 1024h213v88h-213v-88zM123 817v-819h88v819h-88z" />
    <glyph glyph-name="ntilde" unicode="&#xf1;" horiz-adv-x="1118" 
d="M367 1280l419 -256l45 74l-417 258zM840 1106l84 -21l55 232l-86 20zM221 1061l86 -21l53 232l-86 20zM215 553l31 -84l770 283l-31 84zM123 0h88v819h-88v-819zM877 0h88v698h-88v-698z" />
    <glyph glyph-name="ograve" unicode="&#xf2;" horiz-adv-x="1048" 
d="M283 1380l428 -356l55 68l-426 356zM92 473l64 -61l362 360l-61 64zM532 772l363 -358l61 61l-360 361zM530 39l64 -64l362 365l-61 61zM94 338l361 -363l63 62l-362 362z" />
    <glyph glyph-name="oacute" unicode="&#xf3;" horiz-adv-x="1048" 
d="M283 1092l55 -68l426 358l-55 66zM92 473l64 -61l362 360l-61 64zM532 772l363 -358l61 61l-360 361zM530 39l64 -64l362 365l-61 61zM94 338l361 -363l63 62l-362 362z" />
    <glyph glyph-name="ocircumflex" unicode="&#xf4;" horiz-adv-x="1048" 
d="M252 1067l78 -43l188 358l-78 41zM526 1382l191 -358l78 43l-191 356zM92 473l64 -61l362 360l-61 64zM532 772l363 -358l61 61l-360 361zM530 39l64 -64l362 365l-61 61zM94 338l361 -363l63 62l-362 362z" />
    <glyph glyph-name="odieresis" unicode="&#xf6;" horiz-adv-x="1048" 
d="M131 1155l78 -43l108 203l-77 43zM326 1315l108 -203l78 43l-109 203zM539 1155l77 -43l109 203l-78 43zM733 1315l109 -203l78 43l-109 203zM215 1024h213v88h-213v-88zM623 1024h213v88h-213v-88zM92 473l64 -61l362 360l-61 64zM532 772l363 -358l61 61l-360 361z
M530 39l64 -64l362 365l-61 61zM94 338l361 -363l63 62l-362 362z" />
    <glyph glyph-name="divide" unicode="&#xf7;" horiz-adv-x="1179" 
d="M586 1262l-78 43l-109 -203l76 -43zM780 1102l-110 203l-78 -43l110 -203zM696 1059h-215v-88h215v88zM61 731h1057v88h-1057v-88zM399 379l76 -43l111 203l-78 43zM592 539l110 -203l78 43l-110 203zM481 248h215v88h-215v-88z" />
    <glyph glyph-name="oslash" unicode="&#xf8;" horiz-adv-x="1034" 
d="M963 895l61 -64l-219 -210l145 -146l-61 -61l-150 147l-383 -368l156 -156l-63 -62l-156 158l-221 -211l-62 64l219 209l-141 143l62 61l143 -143l385 367l-152 149l64 64l151 -152zM451 836l61 -64l-362 -360l-64 61zM588 -25l-64 64l365 362l61 -61z" />
    <glyph glyph-name="ugrave" unicode="&#xf9;" horiz-adv-x="987" 
d="M252 1380l428 -356l55 68l-426 356zM123 90h88v729h-88v-729zM776 90h88v729h-88v-729zM213 0h561v88h-561v-88z" />
    <glyph glyph-name="uacute" unicode="&#xfa;" horiz-adv-x="987" 
d="M252 1092l55 -68l426 358l-55 66zM123 90h88v729h-88v-729zM776 90h88v729h-88v-729zM213 0h561v88h-561v-88z" />
    <glyph glyph-name="ucircumflex" unicode="&#xfb;" horiz-adv-x="987" 
d="M221 1067l78 -43l188 358l-77 41zM496 1382l190 -358l78 43l-191 356zM123 90h88v729h-88v-729zM776 90h88v729h-88v-729zM213 0h561v88h-561v-88z" />
    <glyph glyph-name="udieresis" unicode="&#xfc;" horiz-adv-x="987" 
d="M100 1155l78 -43l109 203l-78 43zM295 1315l108 -203l78 43l-108 203zM508 1155l78 -43l108 203l-78 43zM702 1315l109 -203l78 43l-109 203zM184 1024h213v88h-213v-88zM592 1024h213v88h-213v-88zM123 90h88v729h-88v-729zM776 90h88v729h-88v-729zM213 0h561v88h-561
v-88z" />
    <glyph glyph-name="yacute" unicode="&#xfd;" horiz-adv-x="921" 
d="M195 1460l55 -67l426 358l-55 66zM31 1223l315 -865l82 29l-313 866zM432 387l82 -29l315 865l-84 30zM555 461l244 -371l71 47l-243 371zM160 0h637v88h-637v-88z" />
    <glyph glyph-name="ydieresis" unicode="&#xff;" horiz-adv-x="921" 
d="M43 1524l78 -43l108 202l-77 43zM238 1683l108 -202l78 43l-109 202zM451 1524l77 -43l109 202l-78 43zM645 1683l109 -202l77 43l-108 202zM127 1393h213v88h-213v-88zM535 1393h213v88h-213v-88zM31 1223l315 -865l82 29l-313 866zM432 387l82 -29l315 865l-84 30z
M555 461l244 -371l71 47l-243 371zM160 0h637v88h-637v-88z" />
    <glyph glyph-name="dotlessi" unicode="&#x131;" horiz-adv-x="333" 
d="M123 817v-819h88v819h-88z" />
    <glyph glyph-name="OE" unicode="&#x152;" horiz-adv-x="1808" 
d="M254 1434v-88h661v88h-661zM1010 1434v-88h686v88h-686zM164 1346v-1258h88v1258h-88zM920 1343v-1251h88v1251h-88zM1053 731v-88h503v88h-503zM254 88v-88h664v88h-664zM1012 88v-88h684v88h-684z" />
    <glyph glyph-name="oe" unicode="&#x153;" horiz-adv-x="1980" 
d="M88 469l64 -61l370 368l-61 64zM528 776l357 -348l61 61l-354 351zM1284 758l598 -281l37 80l-598 281zM526 37l64 -64l733 736l-61 61zM1100 393h770v88h-770v-88zM90 342l365 -367l63 62l-366 366zM965 92h86v252h-86v-252zM1055 0h581v88h-581v-88z" />
    <glyph glyph-name="Ycircumflex" unicode="&#x176;" horiz-adv-x="1378" 
d="M418 1681l78 -43l188 359l-78 41zM692 1997l191 -359l78 43l-191 357zM10 1386l617 -577l61 63l-618 578zM690 872l60 -63l618 575l-59 66zM645 0h88v823h-88v-823z" />
    <glyph glyph-name="ycircumflex" unicode="&#x177;" horiz-adv-x="921" 
d="M164 1436l78 -43l188 358l-78 41zM438 1751l191 -358l78 43l-191 356zM31 1223l315 -865l82 29l-313 866zM432 387l82 -29l315 865l-84 30zM555 461l244 -371l71 47l-243 371zM160 0h637v88h-637v-88z" />
    <glyph glyph-name="Ydieresis" unicode="&#x178;" horiz-adv-x="1378" 
d="M297 1769l78 -43l108 203l-77 43zM492 1929l108 -203l78 43l-109 203zM705 1769l77 -43l109 203l-78 43zM899 1929l109 -203l77 43l-108 203zM381 1638h213v88h-213v-88zM788 1638h213v88h-213v-88zM10 1386l617 -577l61 63l-618 578zM690 872l60 -63l618 575l-59 66z
M645 0h88v823h-88v-823z" />
    <glyph glyph-name="circumflex" unicode="&#x2c6;" horiz-adv-x="542" 
d="M0 1681l78 -43l188 359l-78 41zM274 1997l191 -359l78 43l-191 357z" />
    <glyph glyph-name="ring" unicode="&#x2da;" horiz-adv-x="415" 
d="M96 1964h223v88h-223v-88zM0 1735h88v221h-88v-221zM328 1735h88v221h-88v-221zM96 1638h223v88h-223v-88z" />
    <glyph glyph-name="tilde" unicode="&#x2dc;" horiz-adv-x="757" 
d="M145 1894l420 -256l45 74l-417 258zM618 1720l84 -20l56 231l-86 21zM0 1675l86 -20l53 231l-86 21z" />
    <glyph glyph-name="gravecomb" unicode="&#x300;" 
d="M-483 1995l428 -357l55 68l-426 356z" />
    <glyph glyph-name="acutecomb" unicode="&#x301;" 
d="M-481 1706l55 -68l426 359l-55 65z" />
    <glyph glyph-name="uni0302" unicode="&#x302;" 
d="M-543 1681l78 -43l189 359l-78 41zM-268 1997l190 -359l78 43l-190 357z" />
    <glyph glyph-name="tildecomb" unicode="&#x303;" 
d="M-612 1894l419 -256l46 74l-418 258zM-139 1720l84 -20l55 231l-86 21zM-758 1675l86 -20l54 231l-87 21z" />
    <glyph glyph-name="uni0308" unicode="&#x308;" 
d="M-788 1769l77 -43l109 203l-78 43zM-594 1929l109 -203l77 43l-108 203zM-381 1769l78 -43l108 203l-77 43zM-186 1929l108 -203l78 43l-109 203zM-705 1638h213v88h-213v-88zM-297 1638h213v88h-213v-88z" />
    <glyph glyph-name="uni030A" unicode="&#x30a;" 
d="M-319 1964h223v88h-223v-88zM-416 1735h88v221h-88v-221zM-88 1735h88v221h-88v-221zM-319 1638h223v88h-223v-88z" />
    <glyph glyph-name="uni0327" unicode="&#x327;" 
d="M-426 -195l391 -165l35 79l-391 166zM0 -451l-35 80l-391 -166l35 -79z" />
    <glyph glyph-name="uni0338" unicode="&#x338;" 
d="M-1391 111l62 -64l1329 1266l-61 63z" />
    <glyph glyph-name="Ygrave" unicode="&#x1ef2;" horiz-adv-x="1378" 
d="M449 1995l428 -357l55 68l-426 356zM10 1386l617 -577l61 63l-618 578zM690 872l60 -63l618 575l-59 66zM645 0h88v823h-88v-823z" />
    <glyph glyph-name="ygrave" unicode="&#x1ef3;" horiz-adv-x="921" 
d="M195 1749l428 -356l55 67l-426 357zM31 1223l315 -865l82 29l-313 866zM432 387l82 -29l315 865l-84 30zM555 461l244 -371l71 47l-243 371zM160 0h637v88h-637v-88z" />
    <glyph glyph-name="endash" unicode="&#x2013;" horiz-adv-x="944" 
d="M41 731h862v88h-862v-88z" />
    <glyph glyph-name="emdash" unicode="&#x2014;" horiz-adv-x="1628" 
d="M41 731h1546v88h-1546v-88z" />
    <glyph glyph-name="quoteleft" unicode="&#x2018;" horiz-adv-x="503" 
d="M102 1012h88v422h-88v-422zM197 1143l204 -103l41 80l-206 103zM199 1010l20 -86l174 39l-18 86z" />
    <glyph glyph-name="quoteright" unicode="&#x2019;" horiz-adv-x="503" 
d="M109 1411l20 -86l176 39l-20 86zM313 940h88v422h-88v-422zM61 1255l207 -102l39 78l-207 102z" />
    <glyph glyph-name="quotesinglbase" unicode="&#x201a;" horiz-adv-x="503" 
d="M109 233l20 -86l176 39l-20 86zM313 -238h88v422h-88v-422zM61 78l207 -103l39 78l-207 103z" />
    <glyph glyph-name="quotereversed" unicode="&#x201b;" horiz-adv-x="501" 
d="M199 1364l176 -39l18 86l-176 39zM102 1362v-422h88v422h-88zM197 1231l39 -78l204 102l-39 78z" />
    <glyph glyph-name="quotedblleft" unicode="&#x201c;" horiz-adv-x="917" 
d="M102 1012h88v422h-88v-422zM516 1012h88v422h-88v-422zM197 1143l204 -103l39 80l-204 103zM610 1143l205 -103l41 80l-207 103zM199 1010l18 -86l176 39l-20 86zM612 1010l21 -86l174 39l-19 86z" />
    <glyph glyph-name="quotedblright" unicode="&#x201d;" horiz-adv-x="917" 
d="M109 1411l18 -86l176 39l-18 86zM522 1411l21 -86l176 39l-21 86zM311 940h88v422h-88v-422zM727 940h88v422h-88v-422zM61 1255l205 -102l39 78l-205 102zM475 1255l207 -102l39 78l-207 102z" />
    <glyph glyph-name="quotedblbase" unicode="&#x201e;" horiz-adv-x="917" 
d="M109 233l18 -86l176 39l-18 86zM522 233l21 -86l176 39l-21 86zM311 -238h88v422h-88v-422zM727 -238h88v422h-88v-422zM61 78l205 -103l39 78l-205 103zM475 78l207 -103l39 78l-207 103z" />
    <glyph glyph-name="uni201F" unicode="&#x201f;" horiz-adv-x="917" 
d="M199 1364l176 -39l20 86l-176 39zM614 1364l177 -39l18 86l-176 39zM102 1362v-422h88v422h-88zM518 1362v-422h88v422h-88zM197 1231l39 -78l206 102l-39 78zM612 1231l39 -78l205 102l-39 78z" />
    <glyph glyph-name="dagger" unicode="&#x2020;" horiz-adv-x="722" 
d="M317 1182h89v252h-89v-252zM61 1090h254v88h-254v-88zM408 1090h254v88h-254v-88zM317 475h89v612h-89v-612z" />
    <glyph glyph-name="daggerdbl" unicode="&#x2021;" horiz-adv-x="722" 
d="M317 1182h89v252h-89v-252zM61 1090h254v88h-254v-88zM408 1090h254v88h-254v-88zM317 817h89v268h-89v-268zM61 727h254v88h-254v-88zM408 727h254v88h-254v-88zM317 475h89v250h-89v-250z" />
    <glyph glyph-name="ellipsis" unicode="&#x2026;" horiz-adv-x="1521" 
d="M63 131l78 -43l109 203l-78 43zM258 291l109 -203l77 43l-108 203zM571 131l78 -43l109 203l-78 43zM766 291l108 -203l78 43l-108 203zM1079 131l78 -43l109 203l-78 43zM1274 291l108 -203l78 43l-108 203zM147 0h213v88h-213v-88zM655 0h213v88h-213v-88zM1163 0h213
v88h-213v-88z" />
    <glyph glyph-name="guilsinglleft" unicode="&#x2039;" horiz-adv-x="522" 
d="M82 705l61 -62l277 277l-62 61zM420 358l-277 277l-61 -62l276 -276z" />
    <glyph glyph-name="guilsinglright" unicode="&#x203a;" horiz-adv-x="522" 
d="M102 920l277 -277l61 62l-276 276zM440 573l-61 62l-277 -277l62 -61z" />
    <glyph glyph-name="uni20A9" unicode="&#x20a9;" horiz-adv-x="1923" 
d="M406 1440l182 -1450l88 10l-182 1450zM682 0l88 -10l182 1450l-88 10zM958 1440l181 -1450l88 10l-180 1450zM1233 0l88 -10l180 1450l-88 10zM461 727v88h-451v-88h451zM1901 727v88h-453v-88h453z" />
    <glyph glyph-name="Euro" unicode="&#x20ac;" horiz-adv-x="1376" 
d="M608 1346h641v88h-641v-88zM293 106l86 -16l227 1256l-86 16zM1251 1042h88v301h-88v-301zM397 836v88h-325v-88h325zM975 836v88h-420v-88h420zM348 561v88h-317v-88h317zM934 561v88h-428v-88h428zM1038 90l86 -16l78 399l-88 16zM379 0h657v88h-657v-88z" />
    <glyph glyph-name="arrowleft" unicode="&#x2190;" horiz-adv-x="1556" 
d="M102 788l64 -63l473 475l-64 62zM215 674h1321v88h-1321v-88zM102 649l476 -475l61 62l-473 475z" />
    <glyph glyph-name="arrowup" unicode="&#x2191;" horiz-adv-x="1292" 
d="M578 1434l-476 -476l62 -61l475 473zM717 1434l-64 -64l475 -473l62 64zM602 1321v-1321h88v1321h-88z" />
    <glyph glyph-name="arrowright" unicode="&#x2192;" horiz-adv-x="1558" 
d="M920 1200l473 -475l63 63l-473 474zM23 762v-88h1320v88h-1320zM920 236l61 -62l475 475l-63 62z" />
    <glyph glyph-name="arrowdown" unicode="&#x2193;" horiz-adv-x="1292" 
d="M690 1434h-88v-1321h88v1321zM164 537l-62 -62l476 -475l61 63zM1128 537l-475 -474l64 -63l473 473z" />
    <glyph glyph-name="arrowboth" unicode="&#x2194;" horiz-adv-x="1638" 
d="M102 782l64 -63l473 475l-61 61zM1536 782l-61 -63l-474 475l62 61zM213 668h1208v88h-1208v-88zM102 643l463 -465l64 62l-465 465zM1536 643l-465 -465l-61 62l465 465z" />
    <glyph glyph-name="arrowupdn" unicode="&#x2195;" horiz-adv-x="1323" 
d="M588 1434l-465 -463l61 -64l465 465zM727 1434l-63 -64l475 -473l61 61zM612 1323v-1208h88v1208h-88zM727 0l-63 61l475 474l61 -62zM588 0l-465 465l61 61l465 -465z" />
    <glyph glyph-name="uni2196" unicode="&#x2196;" horiz-adv-x="1566" 
d="M201 1434v-88h798v88h-798zM199 1274l1286 -1274l61 61l-1284 1276zM102 1335v-798h88v798h-88z" />
    <glyph glyph-name="uni2197" unicode="&#x2197;" horiz-adv-x="1566" 
d="M567 1346h799v88h-799v-88zM20 61l62 -61l1286 1274l-63 63zM1376 537h88v798h-88v-798z" />
    <glyph glyph-name="uni2198" unicode="&#x2198;" horiz-adv-x="1566" 
d="M1368 160l-1286 1274l-62 -62l1285 -1276zM1464 98v799h-88v-799h88zM1366 0v88h-799v-88h799z" />
    <glyph glyph-name="uni2199" unicode="&#x2199;" horiz-adv-x="1572" 
d="M1546 1372l-61 62l-1286 -1274l63 -64zM190 897h-88v-799h88v799zM999 88h-798v-88h798v88z" />
    <glyph glyph-name="summation" unicode="&#x2211;" horiz-adv-x="817" 
d="M776 1346h-626v88h626v-88zM563 780l-74 -51l-387 563l74 49zM563 668l-387 -576l-74 49l387 576zM776 0h-626v88h626v-88z" />
    <glyph glyph-name="minus" unicode="&#x2212;" horiz-adv-x="1228" 
d="M90 731h1057v88h-1057v-88z" />
    <glyph glyph-name="radical" unicode="&#x221a;" horiz-adv-x="1024" 
d="M729 1346h275v88h-275v-88zM369 -6l86 -19l270 1364l-86 19zM61 983l215 -1008l86 19l-215 1007z" />
    <glyph glyph-name="integral" unicode="&#x222b;" horiz-adv-x="913" 
d="M678 1382l168 -143l57 68l-168 143zM240 43l86 -20l346 1357l-84 21zM10 119l168 -144l58 68l-168 143z" />
    <glyph glyph-name="uni25B3" unicode="&#x25b3;" horiz-adv-x="1552" 
d="M20 139l78 -39l672 1309l-78 41zM788 1411l664 -1311l80 39l-666 1311zM111 0h1337v88h-1337v-88z" />
    <glyph glyph-name="lozenge" unicode="&#x25ca;" horiz-adv-x="1531" 
d="M106 870l60 -63l596 563l-64 64zM768 1370l596 -563l59 63l-592 564zM102 799v-705h88v705h-88zM1341 799v-705h89v705h-89zM193 0h1146v88h-1146v-88z" />
    <glyph glyph-name="heart" unicode="&#x2665;" horiz-adv-x="1951" 
d="M41 1016l65 -60l400 435l-66 59zM510 1389l397 -424l64 59l-398 426zM981 1024l63 -59l396 424l-64 61zM1444 1391l401 -435l64 60l-400 434zM43 893l864 -918l64 60l-865 917zM981 35l63 -60l867 918l-64 59z" />
    <glyph glyph-name="A.ss01" horiz-adv-x="1320" 
d="M20 -2l82 -31l557 1469l-81 30zM662 1436l557 -1469l81 31l-557 1468zM211 160h899v88h-899v-88z" />
    <glyph glyph-name="B.ss01" horiz-adv-x="983" 
d="M109 1401l606 -539l57 66l-604 538zM199 109h86v1134h-86v-1134zM385 741l29 -82l368 129l-28 84zM287 666l614 -666l64 59l-615 666zM82 0h735v88h-735v-88z" />
    <glyph glyph-name="C.ss01" horiz-adv-x="1165" 
d="M657 1346h385v88h-385v-88zM168 983l63 -61l424 421l-63 64zM143 92h88v828h-88v-828zM719 92l63 -61l332 352l-63 59zM233 0h484v88h-484v-88z" />
    <glyph glyph-name="D.ss01" horiz-adv-x="1146" 
d="M231 1405l725 -494l50 74l-725 492zM164 90h88v1299h-88v-1299zM956 434h88v475h-88v-475zM608 158l54 -68l348 272l-54 70zM254 0h453v88h-453v-88z" />
    <glyph glyph-name="E.ss01" horiz-adv-x="1183" 
d="M256 1393l668 -447l49 74l-668 446zM164 90h88v1301h-88v-1301zM279 567h550v88h-550v-88zM256 0h887v88h-887v-88z" />
    <glyph glyph-name="F.ss01" horiz-adv-x="1032" 
d="M61 1348h951v86h-951v-86zM203 936h88v379h-88v-379zM109 844l690 -160l18 86l-688 160zM203 0h88v772h-88v-772z" />
    <glyph glyph-name="G.ss01" horiz-adv-x="1218" 
d="M182 1020l51 -74l791 559l-49 72zM143 90h88v854h-88v-854zM723 680h485v88h-485v-88zM930 0h88v662h-88v-662zM233 0h676v88h-676v-88z" />
    <glyph glyph-name="H.ss01" horiz-adv-x="1146" 
d="M213 815h88v619h-88v-619zM897 815h88v619h-88v-619zM41 700h1024v88h-1024v-88zM158 0h88v674h-88v-674zM897 0h88v674h-88v-674z" />
    <glyph glyph-name="I.ss01" horiz-adv-x="661" 
d="M131 1346h401v88h-401v-88zM287 115h88v1204h-88v-1204zM41 0h580v88h-580v-88z" />
    <glyph glyph-name="J.ss01" horiz-adv-x="841" 
d="M104 1346h697v88h-697v-88zM541 90h88v1229h-88v-1229zM61 152l64 -60l412 438l-64 60zM127 0h412v88h-412v-88z" />
    <glyph glyph-name="K.ss01" horiz-adv-x="1101" 
d="M422 797l70 -54l559 689l-70 55zM164 0h88v1434h-88v-1434zM260 686l520 -88l15 88l-521 86zM668 561l288 -561l78 41l-289 559z" />
    <glyph glyph-name="L.ss01" horiz-adv-x="1101" 
d="M164 90h88v1344h-88v-1344zM803 88l57 -68l221 189l-55 67zM254 0h547v88h-547v-88z" />
    <glyph glyph-name="M.ss01" horiz-adv-x="1961" 
d="M133 1419l899 -1419l76 47l-899 1419zM975 1419l903 -1419l74 47l-901 1419zM180 0h88v1196h-88v-1196zM1026 184h86v1012h-86v-1012z" />
    <glyph glyph-name="O.ss01" horiz-adv-x="1345" 
d="M254 1346h840v88h-840v-88zM164 88h88v1258h-88v-1258zM1094 88h88v1258h-88v-1258zM254 0h840v88h-840v-88z" />
    <glyph glyph-name="P.ss01" horiz-adv-x="1067" 
d="M82 1346h962v88h-962v-88zM289 666l59 -64l713 676l-62 63zM197 0h88v1313h-88v-1313z" />
    <glyph glyph-name="Q.ss01" horiz-adv-x="1187" 
d="M252 1346h682v88h-682v-88zM164 90h86v1253h-86v-1253zM936 90h88v1253h-88v-1253zM551 -457h88v832h-88v-832zM252 0h274v88h-274v-88zM662 0h272v88h-272v-88z" />
    <glyph glyph-name="R.ss01" horiz-adv-x="1007" 
d="M268 1382l637 -630l62 63l-637 631zM164 0h88v1434h-88v-1434zM272 659h654v89h-654v-89zM268 594l617 -594l61 63l-616 594z" />
    <glyph glyph-name="S.ss01" horiz-adv-x="1544" 
d="M51 854l55 -70l730 598l-56 68zM838 1382l348 -344l61 64l-348 342zM74 694h1351v88h-1351v-88zM633 43l55 -68l795 650l-56 67zM250 293l319 -313l62 63l-320 311z" />
    <glyph glyph-name="T.ss01" horiz-adv-x="1320" 
d="M10 1366l15 -86l637 100l-15 86zM670 1380l628 -94l13 84l-627 96zM623 0h88v1364h-88v-1364z" />
    <glyph glyph-name="A.ss02" horiz-adv-x="1290" 
d="M20 6l82 -31l539 1444l-82 31zM649 1419l539 -1444l82 31l-537 1444zM494 926h303v88h-303v-88z" />
    <glyph glyph-name="B.ss02" horiz-adv-x="987" 
d="M164 1423l381 -438l67 57l-381 439zM166 90h88v1223h-88v-1223zM258 664l66 -58l286 318l-65 59zM274 516h541v88h-541v-88zM817 90h88v424h-88v-424zM256 0h559v88h-559v-88z" />
    <glyph glyph-name="C.ss02" horiz-adv-x="1128" 
d="M352 1346h645v88h-645v-88zM41 106l86 -16l225 1251l-86 17zM999 1042h88v301h-88v-301zM786 90l86 -16l78 399l-88 16zM127 0h659v88h-659v-88z" />
    <glyph glyph-name="D.ss02" horiz-adv-x="1159" 
d="M254 1401l696 -467l49 72l-696 469zM164 90h88v1311h-88v-1311zM950 90h86v842h-86v-842zM254 0h694v88h-694v-88z" />
    <glyph glyph-name="E.ss02" horiz-adv-x="1048" 
d="M301 1346h645v88h-645v-88zM211 893h88v450h-88v-450zM143 811l703 -125l14 86l-702 127zM143 569l13 -86l702 111l-12 88zM219 90h88v399h-88v-399zM309 0h633v88h-633v-88z" />
    <glyph glyph-name="F.ss02" horiz-adv-x="1085" 
d="M254 1346h821v88h-821v-88zM164 0h88v1343h-88v-1343zM287 727h628v88h-628v-88z" />
    <glyph glyph-name="G.ss02" horiz-adv-x="1470" 
d="M584 1346h555v88h-555v-88zM129 1014l61 -62l385 394l-61 61zM102 440h88v504h-88v-504zM731 666h561v88h-561v-88zM1300 0h89v657h-89v-657zM129 371l328 -344l63 59l-327 344zM952 86l68 -57l270 321l-65 56zM530 0h414v88h-414v-88z" />
    <glyph glyph-name="H.ss02" horiz-adv-x="1064" 
d="M197 719h88v715h-88v-715zM764 793h88v641h-88v-641zM41 676l10 -88l963 125l-10 88zM786 0h88v672h-88v-672zM158 0h88v592h-88v-592z" />
    <glyph glyph-name="I.ss02" horiz-adv-x="681" 
d="M106 1346h469v88h-469v-88zM236 117l88 -11l122 1213l-88 8zM51 0h580v88h-580v-88z" />
    <glyph glyph-name="J.ss02" horiz-adv-x="815" 
d="M145 1346h639v88h-639v-88zM532 111h89v1206h-89v-1206zM41 358l133 -303l80 35l-133 303zM254 0h381v88h-381v-88z" />
    <glyph glyph-name="K.ss02" horiz-adv-x="1056" 
d="M276 817l76 -43l402 703l-74 43zM178 803h88v631h-88v-631zM143 682h701v88h-701v-88zM846 0h88v680h-88v-680zM178 0h88v651h-88v-651z" />
    <glyph glyph-name="L.ss02" horiz-adv-x="1003" 
d="M41 225l84 -28l444 1280l-84 28zM98 109l451 -134l24 84l-448 136zM575 59l23 -84l385 101l-22 84z" />
    <glyph glyph-name="M.ss02" horiz-adv-x="1497" 
d="M123 14l86 -14l225 1499l-86 14zM436 1499l226 -1499l86 14l-226 1499zM750 14l86 -14l225 1499l-86 14zM1063 1499l225 -1499l86 14l-225 1499z" />
    <glyph glyph-name="O.ss02" horiz-adv-x="1400" 
d="M498 1346h405v88h-405v-88zM150 1143l61 -64l285 267l-60 63zM905 1346l283 -267l61 64l-282 266zM123 369h88v708h-88v-708zM1190 365h88v712h-88v-712zM150 303l284 -276l62 61l-285 279zM911 90l60 -61l280 270l-61 63zM498 0h411v88h-411v-88z" />
    <glyph glyph-name="P.ss02" horiz-adv-x="1122" 
d="M643 1462l361 -674l77 41l-362 674zM223 827l78 -39l340 674l-80 39zM133 0h88v827h-88v-827zM303 698h698v88h-698v-88z" />
    <glyph glyph-name="Q.ss02" horiz-adv-x="1327" 
d="M254 1346h676v88h-676v-88zM164 90h88v1253h-88v-1253zM932 201h88v1142h-88v-1142zM545 242l805 -283l28 82l-805 283zM254 0h721v88h-721v-88z" />
    <glyph glyph-name="R.ss02" horiz-adv-x="999" 
d="M227 1444l598 -518l58 67l-598 518zM164 0h88v1421h-88v-1421zM254 401l59 -63l570 522l-60 64zM446 422l451 -438l61 61l-450 440z" />
    <glyph glyph-name="S.ss02" horiz-adv-x="1703" 
d="M688 1346h1006v88h-1006v-88zM637 1274l762 -506l49 74l-762 504zM379 678h1020v88h-1020v-88zM330 602l753 -514l50 74l-754 514zM10 0h1071v88h-1071v-88z" />
    <glyph glyph-name="T.ss02" horiz-adv-x="1206" 
d="M10 1346h1186v88h-1186v-88zM231 4l82 -29l467 1340l-82 28z" />
    <glyph glyph-name="a.ss01" horiz-adv-x="1038" 
d="M340 731h616v88h-616v-88zM815 0h88v709h-88v-709zM256 502l516 -250l39 78l-518 250zM72 109l86 -19l96 412l-86 18zM160 0h631v88h-631v-88z" />
    <glyph glyph-name="b.ss01" horiz-adv-x="927" 
d="M197 1434v-1325h88v1325h-88zM289 797l528 -705l70 51l-529 711zM102 88v-88h785v88h-785z" />
    <glyph glyph-name="d.ss01" horiz-adv-x="927" 
d="M643 115h88v1319h-88v-1319zM41 143l70 -51l528 705l-70 57zM41 0h784v88h-784v-88z" />
    <glyph glyph-name="g.ss01" horiz-adv-x="1054" 
d="M420 1192l334 -330l61 62l-334 331zM41 942l61 -61l314 311l-64 61zM823 90h88v1139h-88v-1139zM41 815l332 -334l61 64l-332 332zM440 545l62 -62l315 314l-63 61zM186 170l41 -78l594 297l-41 80zM227 0h594v88h-594v-88z" />
    <glyph glyph-name="i.ss01" horiz-adv-x="442" 
d="M31 1237l78 -43l108 203l-78 43zM225 1397l109 -203l78 43l-109 203zM115 1106h213v88h-213v-88zM174 819v-819h88v819h-88z" />
    <glyph glyph-name="j.ss01" horiz-adv-x="708" 
d="M293 1237l78 -43l108 203l-78 43zM487 1397l109 -203l78 43l-109 203zM377 1106h213v88h-213v-88zM446 0h89v819h-89v-819zM8 289l377 -289l53 70l-377 288z" />
    <glyph glyph-name="k.ss01" horiz-adv-x="935" 
d="M143 0h88v1434h-88v-1434zM412 514l59 -63l389 350l-61 63zM236 512l591 -512l58 66l-592 514z" />
    <glyph glyph-name="m.ss01" horiz-adv-x="1419" 
d="M61 731h1297v88h-1297v-88zM178 0h88v702h-88v-702zM666 0h88v702h-88v-702zM1159 0h88v702h-88v-702z" />
    <glyph glyph-name="n.ss01" horiz-adv-x="964" 
d="M215 731h537v88h-537v-88zM123 0h88v729h-88v-729zM754 0h88v729h-88v-729z" />
    <glyph glyph-name="o.ss01" horiz-adv-x="976" 
d="M360 733h254v86h-254v-86zM113 616l59 -63l186 178l-61 64zM618 731l187 -178l61 63l-188 179zM82 272h88v279h-88v-279zM807 272h88v279h-88v-279zM618 86l62 -63l186 184l-61 63zM109 205l186 -180l61 63l-186 180zM360 0h254v88h-254v-88z" />
    <glyph glyph-name="p.ss01" horiz-adv-x="944" 
d="M233 1229v-88h549v88h-549zM143 1139v-1139h88v1139h-88zM784 1139v-516h88v516h-88zM252 621v-89h530v89h-530z" />
    <glyph glyph-name="q.ss01" horiz-adv-x="944" 
d="M162 1141h549v88h-549v-88zM72 623h88v516h-88v-516zM713 0h88v1139h-88v-1139zM162 532h530v89h-530v-89z" />
    <glyph glyph-name="r.ss01" horiz-adv-x="679" 
d="M213 731h457v88h-457v-88zM123 0h88v729h-88v-729z" />
    <glyph glyph-name="t.ss01" horiz-adv-x="714" 
d="M313 965l86 -19l115 524l-84 19zM20 844h674v88h-674v-88zM313 0h88v819h-88v-819z" />
    <glyph glyph-name="y.ss01" horiz-adv-x="1042" 
d="M10 1206l457 -725l74 47l-457 725zM266 43l76 -43l690 1210l-76 43z" />
    <glyph glyph-name="z.ss01" horiz-adv-x="991" 
d="M143 731h746v88h-746v-88zM162 152l61 -62l582 578l-64 61zM102 0h746v88h-746v-88z" />
    <glyph glyph-name="a.ss02" horiz-adv-x="995" 
d="M870 705l23 86l-592 147l-22 -86zM727 0h88v715h-88v-715zM287 436h420v88h-420v-88zM74 338l63 -62l148 160l-64 60zM59 236l88 -185l78 39l-88 184zM227 0h480v88h-480v-88z" />
    <glyph glyph-name="b.ss02" horiz-adv-x="1198" 
d="M143 1434v-1434h88v1434h-88zM256 625v-88h840v88h-840zM676 133l61 -63l420 399l-61 63zM236 457l432 -482l65 60l-434 479z" />
    <glyph glyph-name="d.ss02" horiz-adv-x="1198" 
d="M967 0h88v1434h-88v-1434zM102 537h840v88h-840v-88zM41 469l420 -399l61 63l-420 399zM465 35l65 -60l433 482l-64 57z" />
    <glyph glyph-name="g.ss02" horiz-adv-x="1069" 
d="M758 1229h301v88h-301v-88zM246 1141h510v88h-510v-88zM160 735h86v404h-86v-404zM758 735h88v404h-88v-404zM246 645h510v88h-510v-88zM285 459l45 -74l299 182l-45 76zM174 297h666v86h-666v-86zM842 90h88v205h-88v-205zM82 90h88v203h-88v-203zM172 0h668v88h-668
v-88z" />
    <glyph glyph-name="i.ss02" horiz-adv-x="374" 
d="M143 1466v-346h88v346h-88zM143 819v-819h88v819h-88z" />
    <glyph glyph-name="j.ss02" horiz-adv-x="659" 
d="M449 1466v-346h88v346h-88zM449 0h88v819h-88v-819zM10 289l377 -289l53 70l-377 288z" />
    <glyph glyph-name="k.ss02" horiz-adv-x="913" 
d="M143 0h88v1434h-88v-1434zM238 549l59 -66l446 391l-59 68zM250 393h510v88h-510v-88zM764 0h88v391h-88v-391z" />
    <glyph glyph-name="m.ss02" horiz-adv-x="1503" 
d="M102 31l84 -31l289 825l-84 29zM133 733l49 -71l180 120l-49 72zM356 481l54 -69l485 372l-53 70zM840 481l53 -69l485 372l-53 70zM582 31l84 -31l249 705l-81 30zM1067 31l84 -31l250 705l-82 30zM1180 72l49 -72l166 117l-49 71z" />
    <glyph glyph-name="n.ss02" horiz-adv-x="1030" 
d="M127 733l49 -71l191 126l-50 72zM102 31l84 -31l289 825l-84 29zM358 481l54 -69l485 372l-53 70zM592 31l84 -31l252 711l-82 30zM705 72l49 -72l166 117l-50 71z" />
    <glyph glyph-name="o.ss02" horiz-adv-x="958" 
d="M193 731h573v88h-573v-88zM102 90h88v639h-88v-639zM768 90h88v639h-88v-639zM193 0h573v88h-573v-88z" />
    <glyph glyph-name="p.ss02" horiz-adv-x="956" 
d="M240 1141h600v88h-600v-88zM143 0h88v1135h-88v-1135zM244 537l61 -64l610 590l-59 63z" />
    <glyph glyph-name="q.ss02" horiz-adv-x="956" 
d="M117 1229v-88h600v88h-600zM725 1135v-1135h88v1135h-88zM41 1063l610 -590l62 64l-613 591z" />
    <glyph glyph-name="r.ss02" horiz-adv-x="772" 
d="M305 805l23 -84l434 110l-23 87zM174 109l88 -9l62 615l-88 8zM20 0h431v88h-431v-88z" />
    <glyph glyph-name="t.ss02" horiz-adv-x="651" 
d="M227 881h88v553h-88v-553zM20 883l582 -287l39 78l-582 287zM227 90h88v645h-88v-645zM317 0h322v88h-322v-88z" />
    <glyph glyph-name="y.ss02" horiz-adv-x="1048" 
d="M233 555h89v674h-89v-674zM817 90h88v1139h-88v-1139zM324 553l51 -72l438 307l-49 72zM35 92l778 207l-22 86l-781 -207zM35 0h780v88h-780v-88z" />
    <glyph glyph-name="z.ss02" horiz-adv-x="1024" 
d="M20 731h646v88h-646v-88zM342 125l82 -35l262 602l-82 37zM358 0h646v88h-646v-88z" />
    <glyph glyph-name="VTF" horiz-adv-x="2332" 
d="M1686 573l81 -28l306 878l-82 29zM82 1421l504 -1446l82 29l-504 1446zM2083 922h88v501h-88v-501zM680 1128h1184v89h-1184v-89zM676 4l82 -29l387 1115l-82 28zM1081 4l82 -29l387 1115l-82 28zM1370 444h881v88h-881v-88zM1712 0h88v422h-88v-422z" />
    </font>
</defs>
</svg>
